<svg width="64" height="64" viewBox="0 0 64 64" fill="none" xmlns="http://www.w3.org/2000/svg">
<circle cx="32" cy="32" r="32" fill="#14A800"/>
<path d="M45.8011 36.9679C43.7315 36.9679 41.7924 36.0995 40.0305 34.6861L40.4593 32.6907L40.478 32.6168C40.8602 30.4921 42.0721 26.9262 45.8011 26.9262C48.5979 26.9262 50.8726 29.1803 50.8726 31.9517C50.8633 34.7138 48.5886 36.9679 45.8011 36.9679ZM45.8011 21.8361C41.0373 21.8361 37.3456 24.9031 35.8447 29.947C33.5513 26.5382 31.8173 22.4458 30.8012 19H25.6738V32.2196C25.6738 34.8247 23.5296 36.9494 20.9006 36.9494C18.2716 36.9494 16.1275 34.8247 16.1275 32.2196V19H11.0001V32.2196C10.9814 37.633 15.4283 42.0765 20.8913 42.0765C26.3543 42.0765 30.8012 37.633 30.8012 32.2196V30.0024C31.7987 32.0625 33.0199 34.1411 34.5022 35.9887L31.3605 50.6216H36.6091L38.8838 40.0072C40.8788 41.2728 43.1722 42.0672 45.8011 42.0672C51.4226 42.0672 56 37.5037 56 31.9332C56 26.3719 51.4226 21.8361 45.8011 21.8361Z" fill="white"/>
</svg>
